<?xml version="1.0" standalone="no"?>
<!DOCTYPE svg PUBLIC "-//W3C//DTD SVG 20010904//EN"
 "http://www.w3.org/TR/2001/REC-SVG-20010904/DTD/svg10.dtd">
<svg version="1.0" xmlns="http://www.w3.org/2000/svg"
 width="300.000000pt" height="166.000000pt" viewBox="0 0 300.000000 166.000000"
 preserveAspectRatio="xMidYMid meet">
<metadata>
Created by potrace 1.10, written by Peter Selinger 2001-2011
</metadata>
<g transform="translate(0.000000,166.000000) scale(0.100000,-0.100000)"
fill="#000000" stroke="none">
<path d="M1614 1436 c-9 -23 7 -38 26 -26 13 8 13 11 -2 26 -16 17 -18 17 -24
0z"/>
<path d="M1724 1435 c-3 -8 -3 -19 1 -25 4 -6 -4 -10 -20 -10 -28 0 -85 -48
-85 -72 0 -10 -34 -13 -158 -14 -86 0 -169 -6 -183 -11 -16 -7 -38 -34 -58
-74 -33 -61 -34 -62 -10 -55 41 12 400 18 479 8 41 -5 76 -8 78 -7 2 2 -4 17
-13 34 -12 24 -22 31 -45 31 -20 0 -30 5 -30 15 0 8 -11 22 -25 31 -33 21 -32
39 4 75 38 38 73 38 100 0 27 -38 26 -49 -4 -73 -14 -11 -25 -24 -25 -30 0 -6
11 1 25 16 21 23 28 26 41 15 23 -19 13 -53 -15 -57 -17 -3 -21 -6 -11 -12 18
-11 60 17 60 41 0 10 -9 24 -20 31 -11 7 -20 17 -20 23 0 6 9 16 20 23 24 14
26 45 5 62 -12 10 -20 9 -39 -3 -28 -19 -42 -11 -20 10 11 12 12 18 3 29 -15
18 -28 18 -35 -1z m26 -15 c0 -5 -4 -10 -10 -10 -5 0 -10 5 -10 10 0 6 5 10
10 10 6 0 10 -4 10 -10z m60 -49 c0 -11 -5 -23 -11 -27 -15 -9 -33 12 -26 30
9 23 37 20 37 -3z m-229 -76 c7 -5 6 -11 -2 -21 -6 -8 -9 -25 -7 -39 l5 -25
-111 -1 c-61 0 -139 -2 -173 -4 l-63 -4 14 28 c22 41 40 52 98 60 73 10 226
13 239 6z m80 -31 c9 -11 10 -20 2 -32 -24 -39 -82 -15 -68 28 8 24 47 27 66
4z"/>
<path d="M969 1245 c-1 -5 -2 -17 -3 -25 0 -8 -12 -17 -26 -21 -18 -5 -20 -7
-6 -8 15 -1 17 -6 10 -28 -5 -16 -8 -45 -8 -65 0 -28 -5 -39 -18 -44 -11 -3
-21 -19 -25 -35 -3 -16 -12 -29 -19 -29 -8 0 -22 -4 -32 -9 -9 -5 -34 -16 -55
-25 -22 -9 -42 -27 -50 -43 -14 -33 -47 -62 -62 -56 -20 7 -48 -34 -41 -60 4
-19 1 -26 -14 -30 -11 -3 -20 -12 -20 -21 0 -9 -6 -16 -14 -16 -8 0 -21 -6
-28 -13 -7 -7 -22 -16 -32 -20 -10 -4 -16 -10 -12 -14 3 -4 20 3 36 15 16 12
36 22 45 22 8 0 15 6 15 14 0 22 19 30 35 16 11 -9 15 -9 15 -1 0 6 -3 11 -7
11 -15 0 -11 55 4 72 13 14 19 15 30 6 11 -9 15 -7 20 10 3 12 9 20 13 17 5
-3 11 3 15 14 22 72 90 93 139 45 14 -15 26 -22 26 -16 0 6 -13 21 -29 35 -32
27 -31 37 6 37 18 0 23 6 23 24 0 28 24 51 46 42 12 -5 14 -1 9 15 -11 33 -8
90 4 102 8 8 11 6 12 -8 0 -15 3 -13 11 8 5 15 17 27 26 27 15 1 15 2 -1 11
-10 6 -22 20 -27 32 -5 12 -10 18 -11 12z"/>
<path d="M1010 1230 c-11 -7 6 -10 55 -10 67 -1 69 -2 48 -17 -32 -22 -28 -40
10 -46 41 -6 47 -2 47 34 0 18 -4 28 -10 24 -5 -3 -20 1 -32 9 -25 18 -95 21
-118 6z"/>
<path d="M1823 1223 c-23 -12 -33 -24 -33 -39 0 -13 -7 -24 -17 -26 -15 -3
-14 -5 5 -10 13 -4 20 -2 16 3 -3 6 5 7 20 3 15 -3 26 -2 26 4 0 5 11 7 25 4
35 -6 32 14 -6 37 -25 15 -27 19 -12 23 10 3 39 2 63 -1 l45 -6 -22 -22 c-13
-13 -18 -23 -13 -23 6 0 15 -10 20 -22 9 -23 9 -23 9 -2 1 27 39 40 48 16 10
-23 9 -73 -1 -101 -7 -20 -6 -23 9 -17 23 9 45 -11 45 -40 0 -20 5 -24 29 -24
17 0 33 -4 36 -10 3 -5 0 -10 -8 -10 -15 0 -63 -47 -55 -55 2 -3 15 6 28 20
31 33 79 33 108 2 12 -13 22 -31 22 -41 0 -10 9 -20 19 -23 11 -3 22 -12 24
-22 4 -14 5 -14 6 1 0 10 -8 23 -19 30 -11 7 -20 20 -20 29 0 21 -39 56 -73
64 -15 4 -30 11 -33 16 -3 5 -16 9 -28 9 -18 0 -25 7 -30 31 -3 18 -13 33 -24
36 -14 3 -17 12 -14 33 11 75 -51 151 -124 149 -21 0 -54 -8 -71 -16z m153
-40 c-7 -7 -26 7 -26 19 0 6 6 6 15 -2 9 -7 13 -15 11 -17z"/>
<path d="M1068 1173 c-5 -22 -15 -34 -35 -41 -27 -10 -27 -10 -4 -11 13 -1 30
-9 38 -18 13 -16 14 -15 8 12 -4 20 -3 25 4 16 5 -7 14 -10 20 -6 9 5 8 10 -3
18 -8 7 -16 23 -18 37 -3 23 -4 23 -10 -7z"/>
<path d="M1251 1161 c-19 -5 -12 -9 35 -19 39 -8 60 -8 64 -2 10 16 250 16
260 0 6 -9 20 -9 65 1 43 10 53 15 39 20 -24 9 -430 9 -463 0z"/>
<path d="M1175 1150 c-3 -6 1 -7 9 -4 18 7 21 14 7 14 -6 0 -13 -4 -16 -10z"/>
<path d="M1107 1100 c-31 -34 -37 -47 -37 -85 0 -25 -3 -44 -7 -44 -32 5 -73
-33 -73 -67 0 -14 -9 -33 -19 -42 -11 -10 -22 -35 -25 -57 -3 -22 -3 -32 0
-23 5 16 7 16 30 1 24 -15 27 -15 55 6 17 13 32 21 33 19 1 -1 9 -21 17 -43
14 -38 17 -40 59 -40 41 0 46 3 59 33 l15 32 271 0 272 0 9 -32 c9 -30 14 -33
51 -36 57 -4 73 20 73 110 0 80 13 87 41 23 16 -35 25 -45 44 -45 15 0 26 -7
30 -21 4 -11 9 -18 12 -16 13 14 -10 47 -33 47 -18 0 -27 9 -38 34 -8 19 -24
41 -35 48 -18 11 -21 23 -21 80 0 40 -4 68 -10 68 -12 0 -16 -10 -25 -62 -3
-21 -11 -38 -17 -38 -6 0 -8 11 -4 30 6 34 9 33 -63 17 l-54 -13 -36 38 c-41
44 -82 57 -181 58 -132 0 -167 -9 -213 -54 l-42 -42 -51 12 c-28 6 -57 14 -63
18 -11 7 -15 58 -5 68 3 3 37 -5 75 -18 73 -25 79 -24 116 8 18 17 37 20 135
21 62 1 149 -2 193 -5 78 -6 79 -6 35 7 -46 13 -44 15 32 19 21 2 25 -1 16
-11 -17 -21 7 -15 27 7 27 30 13 35 -64 20 -38 -7 -76 -10 -85 -7 -9 4 -16 2
-16 -4 0 -7 -12 -9 -32 -5 -36 7 -115 7 -149 1 -12 -3 -64 3 -115 12 -52 9
-97 14 -101 10 -3 -4 4 -19 18 -34 l24 -26 -40 23 c-22 13 -43 28 -46 32 -3 5
-22 -9 -42 -32z m203 -1 c0 -10 -34 -29 -53 -29 -8 0 -17 10 -19 23 -4 20 -1
22 34 19 21 -2 38 -8 38 -13z m263 -38 c46 -6 64 -13 90 -39 l32 -32 -35 -68
c-21 -39 -45 -72 -60 -79 -29 -15 -197 -17 -233 -4 -15 6 -37 35 -61 81 l-38
71 36 34 c30 28 46 35 89 38 88 6 120 6 180 -2z m-453 -67 c0 -16 -16 -19 -25
-4 -8 13 4 32 16 25 5 -4 9 -13 9 -21z m687 -20 c-3 -3 -12 -4 -19 -1 -8 3 -5
6 6 6 11 1 17 -2 13 -5z m-687 -24 c20 -20 20 -20 20 0 0 24 38 28 46 5 4 -8
10 -13 14 -10 5 3 19 1 32 -4 22 -9 22 -10 -7 -11 -48 -1 -75 -11 -75 -29 0
-9 -10 -21 -22 -26 -13 -6 -25 -19 -27 -30 -3 -18 0 -17 21 6 24 25 27 26 94
17 82 -10 97 -15 90 -27 -3 -5 -32 -3 -66 4 -54 11 -61 11 -55 -2 3 -9 0 -22
-6 -29 -13 -16 -59 -19 -59 -4 0 6 -10 8 -24 4 -19 -4 -31 2 -57 31 -19 20
-34 41 -33 46 1 5 2 16 3 24 1 16 57 55 79 55 6 0 21 -9 32 -20z m161 -31 l21
-42 -34 7 c-73 14 -81 16 -86 21 -3 3 5 5 17 5 12 0 31 5 42 11 16 8 18 13 8
25 -8 10 -8 14 0 14 6 0 20 -19 32 -41z m444 31 c-4 -6 5 -8 22 -5 42 8 87 -8
91 -31 4 -31 -31 -55 -100 -70 -35 -7 -76 -16 -92 -20 -20 -5 -27 -3 -22 4 4
6 13 9 20 6 7 -3 16 1 19 9 4 12 64 26 122 28 18 1 35 21 35 40 0 16 -8 19
-52 19 -54 0 -58 -18 -5 -22 15 -1 23 -5 19 -9 -9 -8 -112 -22 -112 -15 0 18
36 76 47 76 8 0 11 -4 8 -10z m144 -82 c-1 -46 -6 -93 -12 -105 -15 -33 -54
-30 -69 5 -7 15 -18 35 -26 45 -14 15 -13 17 12 17 35 0 88 51 86 82 -3 29 -1
38 6 38 3 0 4 -37 3 -82z m-839 -29 c14 -26 -4 -51 -34 -47 -21 3 -32 28 -22
54 8 21 44 17 56 -7z m305 -9 c3 -5 1 -10 -4 -10 -6 0 -11 5 -11 10 0 6 2 10
4 10 3 0 8 -4 11 -10z m-155 -59 c0 -21 -30 -34 -55 -23 -37 17 -30 32 15 32
22 0 40 -4 40 -9z"/>
<path d="M1365 1043 c-11 -3 -32 -16 -47 -30 l-27 -26 21 -41 c49 -98 46 -96
168 -96 125 0 129 2 171 91 l23 51 -28 23 c-16 12 -49 25 -74 29 -50 7 -177 6
-207 -1z m143 -10 c-16 -2 -40 -2 -55 0 -16 2 -3 4 27 4 30 0 43 -2 28 -4z
m-95 -20 c-7 -2 -21 -2 -30 0 -10 3 -4 5 12 5 17 0 24 -2 18 -5z m100 -10
c-13 -2 -35 -2 -50 0 -16 2 -5 4 22 4 28 0 40 -2 28 -4z m142 -23 c-4 -6 -73
-10 -176 -10 -106 0 -169 4 -169 10 0 6 65 10 176 10 114 0 173 -3 169 -10z
m-44 -62 l-20 -33 -109 -3 -109 -3 -13 28 c-8 15 -16 31 -18 36 -2 4 62 7 143
7 l147 0 -21 -32z"/>
<path d="M1807 1127 c-2 -7 -25 -23 -51 -35 -34 -17 -55 -22 -79 -17 l-32 7
20 -21 c19 -19 23 -20 65 -7 72 22 100 38 100 57 0 22 -16 34 -23 16z"/>
<path d="M1840 1126 c0 -22 51 -66 76 -66 13 0 24 5 24 10 0 6 -11 10 -25 10
-30 0 -70 33 -60 49 3 6 1 11 -4 11 -6 0 -11 -6 -11 -14z"/>
<path d="M1800 1053 c8 -3 21 -12 28 -21 10 -14 12 -13 12 6 0 18 -6 22 -27
21 -16 0 -21 -3 -13 -6z"/>
<path d="M922 1014 c-7 -8 -8 -14 -3 -14 5 0 11 -8 13 -17 3 -15 5 -15 10 3 8
30 -4 45 -20 28z"/>
<path d="M977 1006 c-7 -16 1 -26 20 -26 7 0 13 9 13 20 0 23 -25 27 -33 6z"/>
<path d="M1199 1008 c30 -7 47 -6 54 1 8 8 -4 11 -43 10 l-55 -1 44 -10z"/>
<path d="M1710 1010 c0 -11 21 -11 65 0 27 7 25 8 -17 9 -27 0 -48 -3 -48 -9z"/>
<path d="M1941 1003 c0 -13 -8 -23 -16 -23 -8 0 -15 -4 -15 -10 0 -5 5 -10 10
-10 6 0 15 -10 20 -22 7 -20 9 -20 9 -4 1 10 9 25 19 32 16 12 16 13 0 14 -9
0 -19 10 -21 23 l-4 22 -2 -22z"/>
<path d="M801 918 c0 -9 -9 -19 -18 -21 -17 -4 -17 -5 0 -6 9 0 17 -8 17 -16
0 -12 3 -12 18 3 18 16 19 38 2 27 -5 -3 -11 3 -13 12 -4 16 -5 16 -6 1z"/>
<path d="M2141 893 c-1 -16 -8 -23 -23 -24 -17 -1 -19 -2 -5 -6 9 -2 17 -13
17 -24 0 -10 5 -19 10 -19 6 0 10 9 10 20 0 11 7 20 15 20 8 0 15 5 15 10 0 6
-6 10 -14 10 -8 0 -17 8 -19 18 -4 13 -5 11 -6 -5z"/>
<path d="M898 873 c-9 -2 -19 -11 -22 -20 -5 -12 -3 -13 6 -5 7 5 24 12 38 14
17 2 20 5 10 9 -8 3 -22 4 -32 2z"/>
<path d="M2025 870 c-3 -5 2 -10 12 -10 11 0 24 -5 31 -12 9 -9 12 -9 12 0 0
6 -9 16 -19 22 -24 12 -28 13 -36 0z"/>
<path d="M2270 851 c0 -5 9 -11 20 -14 17 -4 20 -12 17 -39 -2 -19 -7 -40 -12
-48 -8 -13 -6 -13 8 -2 18 15 37 8 37 -14 0 -8 -5 -12 -10 -9 -6 4 -16 2 -23
-4 -9 -7 -23 -1 -50 25 -27 24 -48 34 -70 34 -37 0 -77 -24 -77 -46 0 -11 -4
-12 -19 -2 -22 14 -71 -2 -71 -23 0 -8 7 -6 18 4 23 21 38 21 49 2 9 -16 23
-9 39 20 17 30 55 40 90 23 16 -8 28 -20 26 -27 -2 -8 3 -11 12 -8 9 4 19 -1
24 -10 6 -10 14 -13 23 -8 23 15 74 16 84 2 12 -16 55 -29 55 -16 0 5 -9 9
-19 9 -10 0 -21 7 -25 15 -3 8 -14 15 -25 15 -10 0 -21 9 -24 20 -3 11 -12 20
-21 20 -12 0 -14 7 -10 28 4 19 0 34 -11 45 -18 18 -35 22 -35 8z"/>
<path d="M702 749 c-22 -20 -40 -28 -52 -24 -10 3 -22 0 -26 -7 -4 -7 -4 -10
1 -6 4 4 13 3 20 -2 15 -12 65 9 65 28 0 13 40 32 66 32 9 0 29 -13 45 -30 26
-25 33 -28 49 -18 15 10 23 9 39 -6 22 -20 30 -9 9 12 -15 15 -58 16 -58 1 0
-6 -13 3 -29 20 -39 42 -84 42 -129 0z"/>
<path d="M1031 661 c-73 -6 -73 -6 -52 -25 18 -17 21 -30 21 -104 0 -67 -4
-90 -17 -105 -18 -20 -17 -20 87 -14 116 6 153 16 170 47 15 29 4 57 -31 75
l-29 16 26 22 c21 18 25 28 19 46 -8 25 -61 52 -97 49 -13 -1 -56 -4 -97 -7z
m22 -73 c2 -29 1 -63 -4 -76 -6 -15 -5 -21 1 -17 6 3 10 -3 10 -14 0 -10 3
-26 6 -34 4 -11 -1 -13 -18 -10 -22 4 -23 9 -25 104 -2 77 0 99 11 99 9 0 15
-18 19 -52z m87 26 c21 -21 1 -48 -39 -52 -29 -3 -31 -1 -31 31 0 18 3 37 7
40 9 9 44 -2 63 -19z m54 3 c8 -12 5 -22 -14 -42 l-25 -27 35 -28 c29 -24 33
-32 24 -46 -17 -29 -36 -30 -29 -2 4 16 -1 33 -15 51 -17 22 -19 31 -10 42 7
9 9 26 5 46 -8 34 9 38 29 6z m-44 -101 c19 -24 8 -60 -23 -70 -33 -12 -43 -4
-50 47 -6 36 -5 37 27 37 19 0 39 -7 46 -14z"/>
<path d="M1250 664 c0 -4 7 -12 16 -19 12 -8 18 -33 22 -89 4 -68 2 -81 -17
-107 l-22 -29 71 0 c70 0 83 7 55 30 -22 19 -21 177 2 202 15 17 13 18 -55 18
-40 0 -72 -3 -72 -6z m84 -116 c-1 -79 -5 -104 -15 -106 -11 -2 -14 19 -14
103 0 87 3 105 15 105 12 0 15 -17 14 -102z"/>
<path d="M1423 652 c23 -25 24 -183 2 -202 -8 -7 -15 -16 -15 -21 0 -12 207
-12 214 0 11 17 19 101 10 101 -5 0 -16 -15 -24 -33 -10 -22 -25 -35 -48 -41
-18 -5 -35 -6 -38 -3 -4 3 -6 46 -5 94 1 64 6 91 16 99 26 20 16 24 -57 24
-68 0 -70 -1 -55 -18z m72 -105 c0 -87 -2 -103 -15 -100 -22 6 -22 203 0 203
12 0 15 -18 15 -103z"/>
<path d="M1660 666 c0 -4 7 -15 16 -24 24 -24 15 -179 -11 -198 -10 -8 -17
-16 -14 -18 7 -7 138 -10 145 -3 3 3 -4 10 -15 17 -14 7 -21 21 -21 40 0 29 1
30 53 30 31 0 61 6 75 16 53 37 51 97 -5 120 -36 16 -223 32 -223 20z m84 -84
c-1 -31 -5 -65 -9 -75 -4 -9 -4 -28 -1 -42 5 -21 3 -25 -15 -25 -17 0 -20 4
-15 23 3 12 6 57 6 100 0 67 2 77 18 77 14 0 17 -9 16 -58z m86 32 c6 -7 10
-25 8 -41 -3 -25 -7 -28 -38 -28 -32 0 -35 2 -38 33 -2 19 -1 40 2 47 6 15 51
8 66 -11z m51 6 c21 -12 25 -50 7 -68 -20 -20 -27 -14 -26 21 1 19 -2 39 -6
45 -9 15 -1 15 25 2z"/>
<path d="M1940 653 c0 -4 7 -14 16 -24 23 -25 10 -173 -18 -198 -18 -17 -17
-18 43 -25 34 -3 86 -6 114 -6 l53 0 7 46 c6 44 -2 74 -13 45 -15 -44 -89 -80
-106 -52 -3 5 -3 44 1 87 4 57 11 82 25 96 11 11 18 21 16 22 -7 7 -138 15
-138 9z m75 -126 c0 -64 -4 -98 -12 -101 -18 -7 -20 11 -15 112 3 63 8 92 16
89 7 -2 11 -38 11 -100z m108 -114 c-7 -2 -21 -2 -30 0 -10 3 -4 5 12 5 17 0
24 -2 18 -5z"/>
<path d="M703 631 c-34 -22 -48 -50 -38 -81 4 -12 35 -35 76 -55 50 -26 69
-41 69 -55 0 -31 -63 -28 -95 5 -14 13 -25 29 -25 35 0 27 -18 -3 -22 -36 -4
-31 -1 -37 20 -45 60 -23 160 0 182 41 22 41 5 65 -75 106 -76 40 -91 58 -55
69 21 7 76 -18 82 -37 7 -21 28 2 28 31 0 21 -6 30 -22 35 -43 11 -93 6 -125
-13z m-10 -48 c-3 -10 -2 -15 2 -10 10 9 45 -21 45 -40 0 -7 5 -13 11 -13 5 0
7 5 4 10 -10 16 6 11 49 -13 26 -15 40 -31 41 -45 1 -12 -2 -22 -6 -22 -12 0
-29 36 -21 45 4 3 3 6 -3 5 -22 -5 -36 1 -29 11 4 8 0 9 -15 4 -39 -12 -105
44 -86 75 10 16 15 12 8 -7z"/>
<path d="M2193 623 c28 -32 17 -213 -13 -213 -6 0 -10 -4 -10 -9 0 -7 149 -23
235 -26 9 0 27 76 19 84 -2 2 -15 -8 -28 -22 -20 -22 -34 -27 -71 -27 l-45 0
0 45 c0 51 18 60 47 25 26 -30 33 -25 33 25 0 49 -4 53 -26 30 -9 -8 -25 -15
-36 -15 -18 0 -20 4 -14 31 3 17 6 36 6 42 0 15 79 1 101 -19 10 -9 19 -23 19
-31 0 -8 5 -11 10 -8 6 3 10 23 10 44 0 45 -1 45 -160 57 -94 7 -95 6 -77 -13z
m70 -86 c-2 -40 -7 -86 -11 -102 -11 -38 -32 -45 -32 -10 0 14 3 24 8 22 4 -3
7 33 6 79 -1 73 1 84 16 84 15 0 17 -9 13 -73z"/>
<path d="M495 623 c-37 -4 -76 -23 -47 -23 15 0 15 -32 0 -65 -15 -33 -21 -32
-52 7 -19 24 -22 36 -14 45 16 20 9 22 -64 16 -67 -6 -86 -16 -50 -27 10 -4
39 -31 65 -60 37 -43 47 -62 47 -91 0 -22 -6 -38 -15 -41 -8 -4 -15 -11 -15
-17 0 -13 129 -2 144 13 7 7 5 10 -7 10 -20 0 -37 29 -37 63 0 30 42 108 75
139 24 23 32 40 18 36 -5 -1 -26 -3 -48 -5z m-149 -42 c-3 -4 14 -29 37 -53
33 -35 43 -55 45 -83 2 -21 5 -42 8 -47 3 -4 -4 -8 -16 -8 -16 0 -21 6 -20 23
4 45 -1 57 -45 111 -36 45 -41 55 -27 59 9 3 18 5 20 6 2 0 1 -3 -2 -8z"/>
<path d="M574 615 c-8 -19 1 -55 20 -80 14 -20 15 -19 25 8 6 16 11 42 11 58
0 24 -4 29 -25 29 -14 0 -28 -7 -31 -15z m36 -25 c0 -5 -5 -10 -11 -10 -5 0
-7 5 -4 10 3 6 8 10 11 10 2 0 4 -4 4 -10z"/>
<path d="M2530 604 c0 -3 7 -13 16 -21 13 -13 14 -30 8 -92 -8 -90 -19 -118
-39 -101 -8 6 -15 21 -17 33 -4 31 -52 31 -56 1 -5 -33 41 -64 94 -64 59 0 79
27 88 122 5 52 13 79 27 94 l20 21 -53 6 c-66 8 -88 9 -88 1z m60 -24 c0 -5 6
-7 13 -4 10 3 11 -10 4 -68 -10 -84 -23 -122 -37 -113 -6 3 -9 18 -9 33 l1 27
8 -30 c4 -18 6 10 4 68 -1 54 2 97 7 97 5 0 9 -4 9 -10z"/>
<path d="M2582 510 c0 -19 2 -27 5 -17 2 9 2 25 0 35 -3 9 -5 1 -5 -18z"/>
<path d="M2680 592 c0 -3 7 -13 15 -22 23 -26 3 -179 -27 -201 -21 -17 -21
-17 18 -23 21 -3 66 -8 99 -11 33 -4 72 -9 87 -11 24 -5 28 -2 38 36 13 49 5
63 -18 33 -20 -25 -61 -38 -97 -29 -21 5 -25 12 -25 46 0 33 3 40 20 40 11 0
25 -9 32 -20 20 -32 28 -23 28 32 l0 52 -21 -23 c-22 -23 -55 -25 -53 -3 1 6
2 24 3 38 1 26 3 26 48 21 26 -3 52 -12 57 -20 6 -8 17 -24 23 -34 11 -15 12
-10 10 32 l-2 50 -80 7 c-44 4 -97 9 -117 11 -21 3 -38 3 -38 -1z m84 -33 c-6
-11 -13 -75 -17 -162 -2 -47 -31 -48 -34 -2 -2 26 -1 27 7 10 7 -14 8 -2 4 41
-3 37 -2 64 4 68 6 3 8 16 4 28 -3 14 -2 19 6 14 7 -4 12 -2 12 3 0 6 5 11 11
11 5 0 7 -5 3 -11z"/>
<path d="M118 583 c-41 -5 -46 -10 -23 -27 10 -7 19 -42 25 -95 10 -74 9 -86
-6 -102 -10 -11 -15 -21 -12 -24 2 -3 53 0 111 7 l107 11 0 54 c0 58 -14 71
-24 23 -4 -23 -15 -35 -42 -46 -20 -8 -38 -13 -41 -10 -9 9 -22 88 -23 135 0
28 6 51 17 63 15 17 14 18 -18 16 -19 -1 -51 -3 -71 -5z m50 -93 c2 -39 7 -84
12 -100 7 -25 6 -30 -9 -30 -16 0 -19 12 -25 83 -4 45 -9 90 -12 100 -4 12 0
17 13 17 15 0 18 -10 21 -70z"/>
<path d="M1903 300 c-28 -11 -37 -43 -21 -74 12 -23 16 -24 38 -13 47 23 31
105 -17 87z m-2 -57 c-9 -16 -10 -15 -11 8 0 14 3 29 8 33 12 12 14 -22 3 -41z
m24 -11 c-17 -16 -17 -16 -11 8 3 14 6 32 7 40 0 9 5 6 11 -8 9 -19 8 -26 -7
-40z"/>
<path d="M650 255 c0 -43 1 -45 29 -45 37 0 42 8 34 53 -5 33 -9 37 -34 37
-28 0 -29 -2 -29 -45z m48 17 c2 -7 -3 -12 -12 -12 -9 0 -16 7 -16 16 0 17 22
14 28 -4z m2 -37 c0 -8 -7 -15 -15 -15 -8 0 -15 7 -15 15 0 8 7 15 15 15 8 0
15 -7 15 -15z"/>
<path d="M740 255 c0 -25 3 -45 8 -45 4 0 7 20 7 45 0 25 -3 45 -7 45 -5 0 -8
-20 -8 -45z"/>
<path d="M792 258 c-2 -42 1 -48 18 -48 11 0 20 5 20 10 0 6 -6 10 -14 10 -10
0 -16 13 -19 38 -3 34 -4 33 -5 -10z"/>
<path d="M845 283 c4 -10 12 -30 17 -45 14 -38 23 -35 37 13 15 50 8 63 -9 17
l-13 -33 -10 33 c-5 17 -14 32 -20 32 -5 0 -6 -8 -2 -17z"/>
<path d="M932 255 c-12 -25 -17 -45 -12 -45 6 0 13 7 16 15 4 8 15 15 25 15
10 0 19 -7 19 -15 0 -8 5 -15 11 -15 6 0 9 3 7 8 -2 4 -10 24 -18 45 -8 20
-17 37 -20 37 -3 0 -16 -20 -28 -45z m38 5 c0 -5 -7 -10 -16 -10 -8 0 -12 5
-9 10 3 6 10 10 16 10 5 0 9 -4 9 -10z"/>
<path d="M1024 288 c-4 -6 4 -21 20 -33 19 -15 24 -25 17 -30 -7 -4 -19 -1
-28 7 -14 11 -16 11 -11 -2 7 -22 47 -25 55 -4 4 12 -1 22 -15 32 -25 16 -30
37 -7 28 8 -3 15 -1 15 4 0 14 -37 12 -46 -2z"/>
<path d="M1105 255 c0 -25 3 -45 6 -45 10 0 17 49 12 71 -9 34 -19 20 -18 -26z"/>
<path d="M1140 285 c-7 -8 -8 -15 -2 -15 5 0 15 7 22 15 7 8 8 15 2 15 -5 0
-15 -7 -22 -15z"/>
<path d="M1266 291 c-4 -5 -3 -16 0 -24 3 -8 1 -18 -5 -21 -20 -13 1 -36 33
-36 27 0 31 3 33 30 1 18 -2 28 -8 25 -5 -4 -7 -11 -4 -16 4 -5 0 -9 -9 -9 -8
0 -16 -6 -19 -12 -2 -7 -8 -9 -13 -5 -5 4 -2 12 6 17 11 7 11 11 1 23 -8 10
-9 17 -1 22 5 3 10 -2 10 -11 0 -13 3 -15 11 -7 6 6 8 16 5 22 -9 13 -33 14
-40 2z"/>
<path d="M1420 255 c0 -25 5 -45 11 -45 6 0 8 9 4 20 -8 26 2 25 25 -2 10 -13
22 -20 26 -16 4 4 -4 16 -17 27 l-24 19 25 21 c14 11 20 20 14 21 -6 0 -17 -7
-24 -15 -7 -8 -17 -15 -22 -15 -6 0 -8 7 -4 15 3 8 1 15 -4 15 -6 0 -10 -20
-10 -45z"/>
<path d="M1510 255 c0 -41 2 -45 25 -45 14 0 25 5 25 11 0 6 -7 9 -15 5 -12
-4 -15 3 -15 34 0 22 -4 40 -10 40 -5 0 -10 -20 -10 -45z"/>
<path d="M1592 255 c-12 -25 -18 -45 -13 -45 5 0 11 7 15 15 3 8 15 15 26 15
11 0 20 -7 20 -15 0 -8 5 -15 11 -15 6 0 9 3 7 8 -2 4 -10 24 -18 45 -8 20
-17 37 -20 37 -3 0 -16 -20 -28 -45z m38 4 c0 -5 -7 -9 -15 -9 -9 0 -12 6 -9
15 6 15 24 11 24 -6z"/>
<path d="M1680 255 c0 -25 5 -45 10 -45 6 0 10 8 10 18 1 16 1 16 14 0 14 -19
46 -24 46 -8 0 6 -10 10 -22 10 -17 0 -19 3 -10 12 7 7 12 22 12 35 0 19 -5
23 -30 23 -29 0 -30 -2 -30 -45z m50 15 c0 -11 -7 -20 -15 -20 -8 0 -15 9 -15
20 0 11 7 20 15 20 8 0 15 -9 15 -20z"/>
<path d="M1780 281 c-5 -11 -10 -24 -10 -30 0 -18 31 -41 56 -41 19 0 24 5 24
24 0 14 -4 28 -10 31 -6 4 -10 -5 -10 -19 0 -30 -12 -33 -34 -10 -22 21 -5 51
31 57 26 4 26 4 -4 6 -23 1 -35 -5 -43 -18z"/>
<path d="M1981 253 c1 -27 3 -40 6 -30 6 21 19 22 27 2 6 -17 36 -21 36 -5 0
6 -7 10 -15 10 -12 0 -13 4 -4 19 17 26 4 51 -26 51 -23 0 -25 -3 -24 -47z
m44 17 c0 -8 -8 -16 -17 -18 -13 -2 -18 3 -18 18 0 15 5 20 18 18 9 -2 17 -10
17 -18z"/>
<path d="M2083 255 c0 -27 2 -38 4 -22 2 15 2 37 0 50 -2 12 -4 0 -4 -28z"/>
<path d="M2120 255 c0 -26 5 -45 11 -45 7 0 8 12 4 33 l-6 32 30 -32 c17 -18
33 -33 36 -33 3 0 5 20 5 45 0 26 -5 45 -11 45 -7 0 -10 -12 -7 -30 6 -38 -2
-38 -27 0 -27 41 -35 38 -35 -15z"/>
<path d="M2230 281 c-5 -11 -10 -24 -10 -30 0 -18 31 -41 56 -41 19 0 24 5 24
24 0 14 -4 28 -10 31 -6 4 -10 -5 -10 -19 0 -14 -4 -26 -9 -26 -12 0 -41 28
-41 39 0 15 30 33 45 28 8 -4 17 -2 20 3 4 6 -7 10 -24 10 -20 0 -34 -7 -41
-19z"/>
<path d="M1142 230 c7 -11 19 -20 27 -20 11 0 10 5 -4 20 -10 11 -22 20 -27
20 -4 0 -3 -9 4 -20z"/>
</g>
</svg>
